<svg width="540" height="435" viewBox="0 0 540 435" fill="none" xmlns="http://www.w3.org/2000/svg">
<path d="M273.207 435C420.553 435 540 425.669 540 414.16C540 402.65 420.553 393.32 273.207 393.32C125.861 393.32 6.41333 402.65 6.41333 414.16C6.41333 425.669 125.861 435 273.207 435Z" fill="#3F3D56"/>
<path d="M499.833 375.444L502.333 393.779L484.83 395.446L487.33 372.944L499.833 375.444Z" fill="#A0616A"/>
<path d="M417.315 123.759C417.315 123.759 418.982 146.261 418.982 147.094C418.982 147.928 407.312 205.432 407.312 205.432C407.312 205.432 390.642 237.101 407.312 236.267C423.983 235.434 418.982 206.265 418.982 206.265L436.485 157.928L428.984 123.759L417.315 123.759Z" fill="#A0616A"/>
<path d="M444.821 375.444L442.32 393.779L459.824 395.446L457.324 372.944L444.821 375.444Z" fill="#A0616A"/>
<path d="M425.65 203.765L421.482 209.599C421.482 209.599 418.982 234.601 421.482 242.935C423.983 251.269 428.984 289.605 428.984 292.105C428.984 294.605 429.817 296.272 428.984 297.105C428.15 297.939 425.65 297.939 427.317 299.606C428.984 301.272 428.984 306.273 428.984 306.273V310.44L439.819 372.111C439.819 372.111 433.151 379.611 438.152 379.611C443.154 379.611 461.491 379.611 460.657 371.277L458.99 370.444C458.99 370.444 456.49 315.44 457.323 312.94C458.157 310.44 457.323 305.439 457.323 305.439C457.323 305.439 455.656 302.939 457.323 302.106C458.99 301.272 458.99 294.605 458.99 294.605L466.492 243.768C466.492 243.768 473.16 277.937 477.328 281.271C481.495 284.604 480.662 292.938 480.662 292.938L483.996 366.277C483.996 366.277 480.662 374.611 483.996 376.278C487.33 377.945 501.5 383.778 502.333 375.444C503.167 367.11 507.334 294.605 507.334 291.272C507.334 287.938 506.501 286.271 507.334 283.771C508.168 281.271 506.501 281.271 507.334 281.271C508.168 281.271 505.667 278.771 505.667 277.104V236.268C505.667 236.268 506.501 227.934 507.334 226.267C508.168 224.6 506.501 222.933 507.334 220.433C508.168 217.933 505.667 209.599 505.667 209.599L468.159 199.598L425.65 203.765Z" fill="#2F2E41"/>
<path d="M454.823 390.446C454.823 390.446 458.99 386.279 453.156 386.279C449.41 386.355 445.721 387.206 442.32 388.779L438.152 403.78C438.152 403.78 421.065 417.531 440.236 415.864C459.407 414.197 456.49 415.447 456.49 415.447C456.49 415.447 462.324 413.781 463.158 412.114C463.991 410.447 461.491 386.279 461.491 386.279C461.491 386.279 458.99 392.946 454.823 390.446Z" fill="#2F2E41"/>
<path d="M490.664 390.446C490.664 390.446 486.496 386.279 492.331 386.279C496.077 386.355 499.766 387.206 503.167 388.779L507.334 403.78C507.334 403.78 524.421 417.531 505.25 415.864C486.08 414.197 486.496 415.447 486.496 415.447C486.496 415.447 480.662 413.781 479.828 412.114C478.995 410.447 483.996 386.279 483.996 386.279C483.996 386.279 486.496 392.946 490.664 390.446Z" fill="#2F2E41"/>
<path d="M436.485 57.921C448.454 57.921 458.157 48.2198 458.157 36.2527C458.157 24.2857 448.454 14.5845 436.485 14.5845C424.517 14.5845 414.814 24.2857 414.814 36.2527C414.814 48.2198 424.517 57.921 436.485 57.921Z" fill="#A0616A"/>
<path d="M428.984 52.0871C428.984 52.0871 432.318 68.755 432.318 71.2552C432.318 73.7554 446.488 81.2559 446.488 81.2559L462.324 61.2545C462.324 61.2545 452.322 47.0867 452.322 43.7532L428.984 52.0871Z" fill="#A0616A"/>
<path d="M441.486 73.7555C441.486 73.7555 434.222 71.8222 432.019 68.6219C432.019 68.6219 408.979 91.2568 408.979 95.4238L427.317 127.926C427.317 127.926 427.317 139.594 428.984 140.427C430.651 141.26 428.984 140.427 428.984 143.761C428.984 147.094 423.983 168.763 425.65 172.096C427.317 175.43 428.984 172.93 427.317 177.93C425.65 182.93 421.482 209.599 421.482 209.599C421.482 209.599 436.485 204.599 458.157 212.932C479.828 221.266 505.667 209.599 505.667 209.599C505.667 209.599 498.999 194.598 500.666 189.597C502.333 184.597 496.498 175.43 496.498 175.43L492.331 98.7574C492.331 98.7574 498.166 64.5882 493.998 62.9214L485.663 59.5878L458.97 56.3076C458.97 56.3076 452.322 72.9221 441.486 73.7555Z" fill="#D0CDE1"/>
<path d="M417.315 89.5898L408.979 95.4236C408.979 95.4236 404.812 107.925 408.979 113.758C413.147 119.592 414.814 127.926 414.814 127.926L431.484 126.259L417.315 89.5898Z" fill="#D0CDE1"/>
<path d="M419.939 13.353L416.18 11.8483C416.18 11.8483 424.04 3.19607 434.976 3.94845L431.9 0.562756C431.9 0.562756 439.419 -2.44669 446.253 5.45314C449.846 9.60592 454.004 14.4873 456.595 19.9861H460.621L458.941 23.6852L464.821 27.3843L458.785 26.7199C459.357 29.9134 459.161 33.1971 458.214 36.3002L458.376 39.224C458.376 39.224 451.38 28.4003 451.38 26.8956V30.6574C451.38 30.6574 447.62 27.2718 447.62 25.0147L445.57 27.648L444.545 23.51L431.9 27.648L433.951 24.2624L426.091 25.3909L429.166 21.2529C429.166 21.2529 420.281 26.1433 419.939 30.2813C419.598 34.4193 415.155 39.6859 415.155 39.6859L413.105 35.9241C413.105 35.9241 410.029 18.9958 419.939 13.353Z" fill="#2F2E41"/>
<path d="M424.966 181.362H93.7427V414.002H424.966V181.362Z" fill="#F2F2F2"/>
<path d="M204.791 270.125H121.625V415.285H204.791V270.125Z" fill="#3F3D56"/>
<path d="M159.411 278.833H137.008V299.714H159.411V278.833Z" fill="#F2F2F2"/>
<path d="M189.408 278.833H167.005V299.714H189.408V278.833Z" fill="#F2F2F2"/>
<path d="M159.411 307.307H137.008V328.947H159.411V307.307Z" fill="#F2F2F2"/>
<path d="M189.408 307.307H167.005V328.947H189.408V307.307Z" fill="#F2F2F2"/>
<path d="M194.215 357.765C197.136 357.765 199.503 355.398 199.503 352.477C199.503 349.557 197.136 347.19 194.215 347.19C191.295 347.19 188.927 349.557 188.927 352.477C188.927 355.398 191.295 357.765 194.215 357.765Z" fill="#00A82D"/>
<path d="M397.083 256.345H232.674V394.295H397.083V256.345Z" fill="#3F3D56"/>
<path d="M459.578 225.16H59.13L85.8299 169.346L91.8051 156.849L99.6223 140.506L105.598 128.009L112.525 113.532H428.028L432.119 128.009L435.652 140.506L440.273 156.849L443.806 169.346L459.578 225.16Z" fill="#3F3D56"/>
<path d="M244.211 313.544H238.443V349.113H244.211V313.544Z" fill="#00A82D"/>
<path d="M244.211 318.831H238.443V323.157H244.211V318.831Z" fill="#F2F2F2"/>
<path d="M244.211 339.5H238.443V343.826H244.211V339.5Z" fill="#F2F2F2"/>
<path d="M261.037 313.544H247.096V349.113H261.037V313.544Z" fill="#00A82D"/>
<path d="M261.037 318.831H247.096V323.157H261.037V318.831Z" fill="#F2F2F2"/>
<path d="M261.037 339.5H247.096V343.826H261.037V339.5Z" fill="#F2F2F2"/>
<path d="M270.171 313.544H264.402V349.113H270.171V313.544Z" fill="#00A82D"/>
<path d="M270.171 318.831H264.402V323.157H270.171V318.831Z" fill="#F2F2F2"/>
<path d="M270.171 339.5H264.402V343.826H270.171V339.5Z" fill="#F2F2F2"/>
<path d="M278.824 313.544H273.055V349.113H278.824V313.544Z" fill="#00A82D"/>
<path d="M278.824 318.831H273.055V323.157H278.824V318.831Z" fill="#F2F2F2"/>
<path d="M278.824 339.5H273.055V343.826H278.824V339.5Z" fill="#F2F2F2"/>
<path d="M284.383 313.67L278.985 315.704L291.533 348.987L296.931 346.953L284.383 313.67Z" fill="#00A82D"/>
<path d="M286.248 318.617L280.85 320.652L282.376 324.7L287.774 322.665L286.248 318.617Z" fill="#F2F2F2"/>
<path d="M293.539 337.957L288.141 339.992L289.667 344.04L295.066 342.005L293.539 337.957Z" fill="#F2F2F2"/>
<path d="M391.795 313.544H377.854V349.113H391.795V313.544Z" fill="#00A82D"/>
<path d="M391.795 318.831H377.854V323.157H391.795V318.831Z" fill="#F2F2F2"/>
<path d="M391.795 339.5H377.854V343.826H391.795V339.5Z" fill="#F2F2F2"/>
<path d="M374.489 313.544H368.72V349.113H374.489V313.544Z" fill="#00A82D"/>
<path d="M374.489 318.831H368.72V323.157H374.489V318.831Z" fill="#F2F2F2"/>
<path d="M374.489 339.5H368.72V343.826H374.489V339.5Z" fill="#F2F2F2"/>
<path d="M365.836 313.544H360.067V349.113H365.836V313.544Z" fill="#00A82D"/>
<path d="M365.836 318.831H360.067V323.157H365.836V318.831Z" fill="#F2F2F2"/>
<path d="M365.836 339.5H360.067V343.826H365.836V339.5Z" fill="#F2F2F2"/>
<path d="M354.508 313.67L341.96 346.953L347.358 348.987L359.906 315.704L354.508 313.67Z" fill="#00A82D"/>
<path d="M352.643 318.617L351.117 322.665L356.515 324.7L358.041 320.652L352.643 318.617Z" fill="#F2F2F2"/>
<path d="M345.352 337.957L343.826 342.005L349.224 344.039L350.75 339.992L345.352 337.957Z" fill="#F2F2F2"/>
<path d="M397.083 349.113H232.674V352.477H397.083V349.113Z" fill="#F2F2F2"/>
<path d="M334.588 313.544H304.302V349.113H334.588V313.544Z" fill="#00A82D"/>
<path d="M327.137 321.234H311.754V327.964H327.137V321.234Z" fill="#F2F2F2"/>
<path d="M316.321 256.345H313.436V287.108H316.321V256.345Z" fill="#F2F2F2"/>
<path d="M314.879 291.914C317.534 291.914 319.686 289.762 319.686 287.108C319.686 284.453 317.534 282.301 314.879 282.301C312.224 282.301 310.071 284.453 310.071 287.108C310.071 289.762 312.224 291.914 314.879 291.914Z" fill="#F2F2F2"/>
<path d="M435.652 140.506H99.6223L105.598 128.009H432.119L435.652 140.506Z" fill="#00A82D"/>
<path d="M443.806 169.345H85.8298L91.8051 156.848H440.273L443.806 169.345Z" fill="#00A82D"/>
<path d="M478.995 97.0906C478.995 97.0906 474.168 109.5 475.176 121.779C475.361 123.977 476.101 126.093 477.328 127.926L418.194 155.996C418.194 155.996 391.475 158.762 398.144 170.429C404.812 182.097 428.984 164.596 428.984 164.596C428.984 164.596 492.331 155.428 497.332 146.261C502.333 137.094 505.667 98.7573 505.667 98.7573L478.995 97.0906Z" fill="#A0616A"/>
<path d="M481.495 62.9214H493.998C493.998 62.9214 503.167 64.5882 505.667 81.2561C508.168 97.924 510.668 102.091 508.168 102.091C505.667 102.091 475.661 101.258 475.661 100.424C475.661 99.5908 481.495 62.9214 481.495 62.9214Z" fill="#D0CDE1"/>
<path d="M64.133 311.882C99.5527 311.882 128.266 283.173 128.266 247.759C128.266 212.344 99.5527 183.635 64.133 183.635C28.7133 183.635 0 212.344 0 247.759C0 283.173 28.7133 311.882 64.133 311.882Z" fill="#00A82D"/>
<path opacity="0.1" d="M64.133 302.905C94.594 302.905 119.287 278.215 119.287 247.759C119.287 217.302 94.594 192.612 64.133 192.612C33.6721 192.612 8.97864 217.302 8.97864 247.759C8.97864 278.215 33.6721 302.905 64.133 302.905Z" fill="black"/>
<path d="M61.4902 280.3V272.274C57.4322 272.195 53.2343 270.764 50.7856 268.777L52.4647 263.453C55.3745 265.633 58.9035 266.83 62.5396 266.87C67.5072 266.87 70.8655 263.611 70.8655 259.082C70.8655 254.711 68.1368 252.009 62.9594 249.625C55.823 246.446 51.4153 242.79 51.4153 235.877C51.4153 229.281 55.5432 224.274 61.98 223.082V215.056H66.3177V222.764C69.5523 222.808 72.7073 223.773 75.4132 225.546L73.6639 230.791C71.0687 229.014 67.9934 228.072 64.8485 228.089C59.4614 228.089 57.4322 231.744 57.4322 234.923C57.4322 239.055 60.0209 241.121 66.108 243.983C73.3141 247.32 76.9525 251.453 76.9525 258.525C76.9525 264.803 73.1043 270.684 65.8979 272.035V280.3H61.4902Z" fill="#F2F2F2"/>
</svg>
