<svg width="311" height="287" viewBox="0 0 311 287" fill="none" xmlns="http://www.w3.org/2000/svg">
<g clip-path="url(#clip0_242_78)">
<path d="M14.4511 273.481C18.765 282.325 27.9206 286.121 27.9206 286.121C27.9206 286.121 30.0821 275.579 25.7682 266.735C21.4543 257.891 12.2987 254.094 12.2987 254.094C12.2987 254.094 10.1373 264.637 14.4511 273.481Z" fill="#2F2E41"/>
<path d="M17.4162 270.571C25.2045 275.751 28.204 286.04 28.204 286.04C28.204 286.04 18.5762 287.93 10.7879 282.75C2.99953 277.57 0 267.282 0 267.282C0 267.282 9.62785 265.391 17.4162 270.571Z" fill="#00A82D"/>
<path d="M192.032 13.778H143.438V14.5454H192.032V13.778Z" fill="#F2F2F2"/>
<path d="M178.842 14.3535H178.148V21.4521H178.842V14.3535Z" fill="#F2F2F2"/>
<path d="M157.669 14.3535H156.975V21.4521H157.669V14.3535Z" fill="#F2F2F2"/>
<path d="M216.676 50.6136H168.082V51.3811H216.676V50.6136Z" fill="#F2F2F2"/>
<path d="M181.966 43.7069H181.271V50.8054H181.966V43.7069Z" fill="#F2F2F2"/>
<path d="M203.139 43.7069H202.444V50.8054H203.139V43.7069Z" fill="#F2F2F2"/>
<path d="M281.236 67.8804H232.642V68.6478H281.236V67.8804Z" fill="#F2F2F2"/>
<path d="M246.526 60.9736H245.832V68.0722H246.526V60.9736Z" fill="#F2F2F2"/>
<path d="M267.699 60.9736H267.005V68.0722H267.699V60.9736Z" fill="#F2F2F2"/>
<path d="M276.376 245.919H227.783V246.687H276.376V245.919Z" fill="#F2F2F2"/>
<path d="M241.667 239.013H240.972V246.111H241.667V239.013Z" fill="#F2F2F2"/>
<path d="M262.84 239.013H262.145V246.111H262.84V239.013Z" fill="#F2F2F2"/>
<path d="M193.42 122.75H144.826V123.517H193.42V122.75Z" fill="#F2F2F2"/>
<path d="M158.71 115.843H158.016V122.942H158.71V115.843Z" fill="#F2F2F2"/>
<path d="M179.883 115.843H179.189V122.942H179.883V115.843Z" fill="#F2F2F2"/>
<path d="M208.692 215.223H160.099V215.99H208.692V215.223Z" fill="#F2F2F2"/>
<path d="M173.982 208.316H173.288V215.415H173.982V208.316Z" fill="#F2F2F2"/>
<path d="M195.155 208.316H194.461V215.415H195.155V208.316Z" fill="#F2F2F2"/>
<path d="M286.442 187.212H237.849V187.98H286.442V187.212Z" fill="#F2F2F2"/>
<path d="M251.732 180.306H251.038V187.404H251.732V180.306Z" fill="#F2F2F2"/>
<path d="M272.905 180.306H272.211V187.404H272.905V180.306Z" fill="#F2F2F2"/>
<path d="M125.67 269.431H43.4824V268.778H125.079V237.076H50.3918L46.7635 228.72L47.2967 228.437L50.7638 236.422H125.67V269.431Z" fill="#2F2E41"/>
<path d="M54.4211 285.445C57.8499 285.445 60.6296 282.373 60.6296 278.582C60.6296 274.792 57.8499 271.719 54.4211 271.719C50.9923 271.719 48.2126 274.792 48.2126 278.582C48.2126 282.373 50.9923 285.445 54.4211 285.445Z" fill="#3F3D56"/>
<path d="M115.619 285.445C119.047 285.445 121.827 282.373 121.827 278.582C121.827 274.792 119.047 271.719 115.619 271.719C112.19 271.719 109.41 274.792 109.41 278.582C109.41 282.373 112.19 285.445 115.619 285.445Z" fill="#3F3D56"/>
<path d="M187.755 137.069C189.878 137.069 191.598 135.167 191.598 132.82C191.598 130.474 189.878 128.572 187.755 128.572C185.632 128.572 183.912 130.474 183.912 132.82C183.912 135.167 185.632 137.069 187.755 137.069Z" fill="#3F3D56"/>
<path d="M134.461 226.291H42.0811L22.0923 154.064H155.046L154.925 154.489L134.461 226.291ZM42.5185 225.637H134.027L154.24 154.717H22.8914L42.5185 225.637Z" fill="#2F2E41"/>
<path d="M127.25 222.532H46.1092L28.5522 158.476H145.33L145.224 158.853L127.25 222.532Z" fill="#F2F2F2"/>
<path d="M156.703 147.611L156.131 147.443L160.033 131.186H182.729V131.84H160.488L156.703 147.611Z" fill="#2F2E41"/>
<path d="M148.402 175.961H28.5518V176.614H148.402V175.961Z" fill="#2F2E41"/>
<path d="M141.539 200.042H35.2162V200.696H141.539V200.042Z" fill="#2F2E41"/>
<path d="M88.8631 154.391H88.2719V225.964H88.8631V154.391Z" fill="#2F2E41"/>
<path d="M115.336 154.37L111.091 225.942L111.682 225.985L115.926 154.413L115.336 154.37Z" fill="#2F2E41"/>
<path d="M61.8114 154.369L61.2213 154.412L65.4411 225.985L66.0312 225.943L61.8114 154.369Z" fill="#2F2E41"/>
<path d="M311 285.86H0V286.627H311V285.86Z" fill="#2F2E41"/>
<path d="M206.666 23.7421C206.666 23.7421 211.74 39.7066 208.618 42.1627C205.495 44.6188 219.156 64.6768 219.156 64.6768L235.549 59.7646L226.572 42.9814C226.572 42.9814 225.401 26.1982 225.401 23.7421C225.401 21.286 206.666 23.7421 206.666 23.7421Z" fill="#A0616A"/>
<path opacity="0.1" d="M206.666 23.7421C206.666 23.7421 211.74 39.7066 208.618 42.1627C205.495 44.6188 219.156 64.6768 219.156 64.6768L235.549 59.7646L226.572 42.9814C226.572 42.9814 225.401 26.1982 225.401 23.7421C225.401 21.286 206.666 23.7421 206.666 23.7421Z" fill="black"/>
<path d="M198.149 137.54C198.149 137.54 196.668 158.008 198.149 168.651C199.63 179.294 201.852 208.767 201.852 208.767C201.852 208.767 201.852 264.438 209.999 265.256C218.145 266.075 224.07 266.894 224.81 263.619C225.551 260.344 221.107 258.707 223.329 257.07C225.551 255.432 226.292 249.701 223.329 243.152C220.367 236.602 223.329 170.288 223.329 170.288L237.4 212.041C237.4 212.041 238.882 246.427 240.363 251.339C241.844 256.251 238.882 265.256 244.066 266.075C249.25 266.894 255.174 261.982 258.137 260.344C261.099 258.707 253.693 258.707 255.175 257.888C256.656 257.07 261.099 254.613 259.618 253.795C258.137 252.976 256.656 213.679 256.656 213.679C256.656 213.679 252.582 129.763 247.398 126.488C242.214 123.213 238.882 128.854 238.882 128.854L198.149 137.54Z" fill="#2F2E41"/>
<path d="M211.48 261.982V268.531C211.48 268.531 204.815 286.335 211.48 286.335C218.145 286.335 223.329 288.18 223.329 285.724V263.619L211.48 261.982Z" fill="#2F2E41"/>
<path d="M255.174 261.97V268.52C255.174 268.52 261.84 286.323 255.174 286.323C248.509 286.323 243.325 288.168 243.325 285.712V263.608L255.174 261.97Z" fill="#2F2E41"/>
<path d="M217.034 35.6131C224.396 35.6131 230.365 29.0153 230.365 20.8766C230.365 12.7379 224.396 6.14014 217.034 6.14014C209.672 6.14014 203.704 12.7379 203.704 20.8766C203.704 29.0153 209.672 35.6131 217.034 35.6131Z" fill="#A0616A"/>
<path d="M212.961 48.3029C212.961 48.3029 216.664 60.5832 222.589 58.1272L228.513 55.6711L238.882 134.266C238.882 134.266 230.735 147.365 218.886 139.178C207.036 130.991 212.961 48.3029 212.961 48.3029Z" fill="#00A82D"/>
<path d="M223.329 45.8468L226.662 38.0692C226.662 38.0692 246.287 48.3029 249.25 51.5776C252.212 54.8524 252.212 59.7646 252.212 59.7646L247.028 80.2319C247.028 80.2319 248.509 125.26 248.509 126.897C248.509 128.535 253.693 137.54 249.99 134.266C246.287 130.991 245.547 127.716 242.585 132.628C239.622 137.54 232.957 143.271 232.957 143.271L223.329 45.8468Z" fill="#3F3D56"/>
<path d="M249.25 104.793L247.028 127.716C247.028 127.716 233.697 140.815 236.66 141.634C239.622 142.453 241.103 139.178 241.103 139.178C241.103 139.178 246.287 144.909 249.25 141.634C252.212 138.359 259.618 107.249 259.618 107.249L249.25 104.793Z" fill="#A0616A"/>
<path d="M217.318 0.0498321C214.363 -0.066956 211.2 -0.124727 208.709 1.63576C207.562 2.51928 206.557 3.60741 205.733 4.85563C203.307 8.24699 201.21 12.5141 202.111 16.7218L203.158 16.2704C203.158 17.3936 202.932 18.5027 202.497 19.5176C202.644 19.0437 203.138 19.8098 203.006 20.2892L201.853 24.4718C203.748 23.7035 206.107 25.2591 206.395 27.4684C206.527 22.6102 206.983 17.0395 210.548 14.1948C212.346 12.7603 214.621 12.3223 216.81 11.9334C218.83 11.5747 220.947 11.2326 222.881 11.9675C224.816 12.7025 226.463 14.8894 226.024 17.098C226.916 16.7584 227.914 17.4455 228.355 18.3675C228.795 19.2895 228.819 20.3772 228.832 21.4199C229.783 22.1627 230.865 20.6877 231.252 19.4741C232.162 16.6254 232.97 13.5929 232.48 10.6209C231.99 7.64887 229.799 4.80864 227.067 4.79856C227.398 4.3958 227.575 3.8662 227.56 3.32179L225.308 3.1114C225.879 3.02189 226.405 2.7154 226.795 2.2444C225.891 3.34446 218.781 0.107622 217.318 0.0498321Z" fill="#2F2E41"/>
<path d="M216.664 43.3908C216.664 43.3908 210.635 36.8598 208.465 37.2598C206.296 37.6599 203.333 43.3908 203.333 43.3908C203.333 43.3908 185.559 49.9403 186.3 56.4898C187.04 63.0394 195.187 94.9684 195.187 94.9684C195.187 94.9684 201.852 133.447 195.928 137.54C190.003 141.634 224.07 152.277 224.81 147.365C225.551 142.453 227.032 93.331 224.81 85.9628C222.589 78.5946 216.664 43.3908 216.664 43.3908Z" fill="#3F3D56"/>
<path d="M242.584 56.4899H251.742C251.742 56.4899 258.137 87.6002 258.877 90.875C259.618 94.1498 261.099 109.705 260.359 109.705C259.618 109.705 244.806 106.43 244.806 108.886L242.584 56.4899Z" fill="#3F3D56"/>
<path d="M242.274 133.529H207.218C203.797 116.132 203.511 99.3233 207.218 83.2639H242.274C236.617 99.0344 236.264 115.728 242.274 133.529Z" fill="#F2F2F2"/>
<path d="M192.965 112.161L203.333 117.073C203.333 117.073 223.329 120.348 223.329 111.342C223.329 102.337 203.333 107.249 203.333 107.249L196.668 104.893L192.965 112.161Z" fill="#A0616A"/>
<path d="M195.187 51.5776L186.3 54.0337L179.635 97.4244C179.635 97.4244 177.413 108.886 181.116 109.705C184.819 110.524 195.187 117.073 195.187 117.073C195.187 117.073 196.668 104.793 199.63 104.793L192.225 98.2431L196.668 69.5889L195.187 51.5776Z" fill="#3F3D56"/>
<path d="M69.5059 135.412H20.9121V136.18H69.5059V135.412Z" fill="#F2F2F2"/>
<path d="M34.796 128.506H34.1018V135.604H34.796V128.506Z" fill="#F2F2F2"/>
<path d="M55.9691 128.506H55.2749V135.604H55.9691V128.506Z" fill="#F2F2F2"/>
<path d="M86.5137 21.8358H37.9199V22.6032H86.5137V21.8358Z" fill="#F2F2F2"/>
<path d="M73.324 22.4114H72.6298V29.5099H73.324V22.4114Z" fill="#F2F2F2"/>
<path d="M52.151 22.4114H51.4568V29.5099H52.151V22.4114Z" fill="#F2F2F2"/>
<path d="M135.455 97.4255H86.8608V98.193H135.455V97.4255Z" fill="#F2F2F2"/>
<path d="M122.265 98.0011H121.571V105.1H122.265V98.0011Z" fill="#F2F2F2"/>
<path d="M101.092 98.0011H100.398V105.1H101.092V98.0011Z" fill="#F2F2F2"/>
<path d="M52.8452 97.0419H4.25146V97.8093H52.8452V97.0419Z" fill="#F2F2F2"/>
<path d="M39.6554 97.6174H38.9612V104.716H39.6554V97.6174Z" fill="#F2F2F2"/>
<path d="M18.4824 97.6174H17.7882V104.716H18.4824V97.6174Z" fill="#F2F2F2"/>
<path d="M111.158 58.6714H62.564V59.4388H111.158V58.6714Z" fill="#F2F2F2"/>
<path d="M76.4478 51.7648H75.7537V58.8633H76.4478V51.7648Z" fill="#F2F2F2"/>
<path d="M97.6208 51.7648H96.9266V58.8633H97.6208V51.7648Z" fill="#F2F2F2"/>
</g>
<defs>
<clipPath id="clip0_242_78">
<rect width="311" height="287" fill="white"/>
</clipPath>
</defs>
</svg>
